# xmcd
#
# Track frame offsets: 
#        150
#        11809
#        19935
#        32495
#        44364
#        54422
#        64873
#        74701
#        84840
#        96267
#        107135
#        115988
#        126646
#        138611
#        149007
#        160383
#
# Disc length: 2265 seconds
#
# Revision: 0
# Processed by: cddbd v1.5.2PL0 Copyright (c) Steve Scherf et al.
# Submitted via: ExactAudioCopy v0.95b3
#
DISCID=f208d710
DTITLE=The Beatles  - A Hard Day's Night (OSS)  FLAC
DYEAR=1900
DGENRE=
TTITLE0=A Hard Day's Night
TTITLE1=I'll Cry Instead
TTITLE2=I Should Have Known Better
TTITLE3=Things We Said Today
TTITLE4=Anytime at All
TTITLE5=When I Get Home
TTITLE6=Tell Me Why
TTITLE7=Can't Buy Me Love
TTITLE8=And I Love Her
TTITLE9=I'll Be Back
TTITLE10=I'm Happy Just to Dance with You
TTITLE11=If I Fell
TTITLE12=You Can't Do That
TTITLE13=When I Get Home [mono]
TTITLE14=And I Love Her [mono]
TTITLE15=I'll Cry Instead
EXTD=
EXTT0=
EXTT1=
EXTT2=
EXTT3=
EXTT4=
EXTT5=
EXTT6=
EXTT7=
EXTT8=
EXTT9=
EXTT10=
EXTT11=
EXTT12=
EXTT13=
EXTT14=
EXTT15=
PLAYORDER=
